<?xml version="1.0"?>
<svg xmlns="http://www.w3.org/2000/svg" viewBox="0 0 24 24">
    <path d="M 12 2 C 8.6 2 5.1 4.00625 5 5.90625 L 3 20 L 2 20 L 2 22 L 22 22 L 22 20 L 21 20 L 19 5.90625 C 18.9 4.00625 15.4 2 12 2 z M 12 4 C 14.9 4 16.9 5.5 17 6 L 19 20 L 5 20 L 7 6 C 7.1 5.5 9.1 4 12 4 z M 10 6 C 9.4477153 6 9 6.4477153 9 7 C 9 7.5522847 9.4477153 8 10 8 C 10.552285 8 11 7.5522847 11 7 C 11 6.4477153 10.552285 6 10 6 z M 14 6 C 13.447715 6 13 6.4477153 13 7 C 13 7.5522847 13.447715 8 14 8 C 14.552285 8 15 7.5522847 15 7 C 15 6.4477153 14.552285 6 14 6 z M 8 9 C 7.4477153 9 7 9.4477153 7 10 C 7 10.552285 7.4477153 11 8 11 C 8.5522847 11 9 10.552285 9 10 C 9 9.4477153 8.5522847 9 8 9 z M 12 9 C 11.447715 9 11 9.4477153 11 10 C 11 10.552285 11.447715 11 12 11 C 12.552285 11 13 10.552285 13 10 C 13 9.4477153 12.552285 9 12 9 z M 16 9 C 15.447715 9 15 9.4477153 15 10 C 15 10.552285 15.447715 11 16 11 C 16.552285 11 17 10.552285 17 10 C 17 9.4477153 16.552285 9 16 9 z M 10 12 C 9.4477153 12 9 12.447715 9 13 C 9 13.552285 9.4477153 14 10 14 C 10.552285 14 11 13.552285 11 13 C 11 12.447715 10.552285 12 10 12 z M 14 12 C 13.447715 12 13 12.447715 13 13 C 13 13.552285 13.447715 14 14 14 C 14.552285 14 15 13.552285 15 13 C 15 12.447715 14.552285 12 14 12 z M 8 15 C 7.4477153 15 7 15.447715 7 16 C 7 16.552285 7.4477153 17 8 17 C 8.5522847 17 9 16.552285 9 16 C 9 15.447715 8.5522847 15 8 15 z M 12 15 C 11.447715 15 11 15.447715 11 16 C 11 16.552285 11.447715 17 12 17 C 12.552285 17 13 16.552285 13 16 C 13 15.447715 12.552285 15 12 15 z M 16 15 C 15.447715 15 15 15.447715 15 16 C 15 16.552285 15.447715 17 16 17 C 16.552285 17 17 16.552285 17 16 C 17 15.447715 16.552285 15 16 15 z"/>
</svg>
